<svg xmlns="http://www.w3.org/2000/svg" id="svg" width="100%" height="100%" class="transition duration-300 ease-in-out delay-150" viewBox="0 0 1440 700"><style>@keyframes pathAnim-0{0%{d:path(&quot;M 0,700 C 0,700 0,233 0,233 C 297,260 594,287 834,287 C 1074,287 1257,260 1440,233 C 1440,233 1440,700 1440,700 Z&quot;)}25%{d:path(&quot;M 0,700 C 0,700 0,233 0,233 C 209,203 418,173 658,173 C 898,173 1169,203 1440,233 C 1440,233 1440,700 1440,700 Z&quot;)}50%{d:path(&quot;M 0,700 C 0,700 0,233 0,233 C 238.5,226 477,219 717,219 C 957,219 1198.5,226 1440,233 C 1440,233 1440,700 1440,700 Z&quot;)}75%{d:path(&quot;M 0,700 C 0,700 0,233 0,233 C 268.5,237.5 537,242 777,242 C 1017,242 1228.5,237.5 1440,233 C 1440,233 1440,700 1440,700 Z&quot;)}}.path-0{animation:pathAnim-0 10s;animation-timing-function:linear;animation-iteration-count:infinite}</style><defs><linearGradient id="gradient" x1="0%" x2="100%" y1="50%" y2="50%"><stop offset="5%" stop-color="#002bdc"/><stop offset="95%" stop-color="#32ded4"/></linearGradient></defs><path fill="url(#gradient)" fill-opacity=".53" stroke="none" stroke-width="0" d="M 0,700 C 0,700 0,233 0,233 C 297,260 594,287 834,287 C 1074,287 1257,260 1440,233 C 1440,233 1440,700 1440,700 Z" class="transition-all duration-300 ease-in-out delay-150 path-0"/><style>@keyframes pathAnim-1{0%{d:path(&quot;M 0,700 C 0,700 0,466 0,466 C 226.5,451 453,436 693,436 C 933,436 1186.5,451 1440,466 C 1440,466 1440,700 1440,700 Z&quot;)}25%{d:path(&quot;M 0,700 C 0,700 0,466 0,466 C 294.5,436.5 589,407 829,407 C 1069,407 1254.5,436.5 1440,466 C 1440,466 1440,700 1440,700 Z&quot;)}50%{d:path(&quot;M 0,700 C 0,700 0,466 0,466 C 298.5,467 597,468 837,468 C 1077,468 1258.5,467 1440,466 C 1440,466 1440,700 1440,700 Z&quot;)}75%{d:path(&quot;M 0,700 C 0,700 0,466 0,466 C 245.5,442 491,418 731,418 C 971,418 1205.5,442 1440,466 C 1440,466 1440,700 1440,700 Z&quot;)}}.path-1{animation:pathAnim-1 10s;animation-timing-function:linear;animation-iteration-count:infinite}</style><defs><linearGradient id="gradient" x1="0%" x2="100%" y1="50%" y2="50%"><stop offset="5%" stop-color="#002bdc"/><stop offset="95%" stop-color="#32ded4"/></linearGradient></defs><path fill="url(#gradient)" fill-opacity="1" stroke="none" stroke-width="0" d="M 0,700 C 0,700 0,466 0,466 C 226.5,451 453,436 693,436 C 933,436 1186.5,451 1440,466 C 1440,466 1440,700 1440,700 Z" class="transition-all duration-300 ease-in-out delay-150 path-1"/></svg>